<svg width="45" height="45" viewBox="0 0 45 45" fill="none" xmlns="http://www.w3.org/2000/svg">
<path d="M22.5 8.02334e-07C16.5347 -0.00159179 10.8131 2.36779 6.59364 6.58699C2.37416 10.8062 0.00238653 16.5297 0 22.4985C0.000787826 25.4542 0.583393 28.3809 1.71455 31.1113C2.84571 33.8417 4.50326 36.3225 6.59258 38.4119C8.6819 40.5014 11.1621 42.1586 13.8915 43.289C16.6209 44.4194 19.546 45.0008 22.5 45C26.418 45 31.23 44.0154 34.662 42.1573L43.032 44.925C43.2963 45.0118 43.5796 45.0233 43.8501 44.9583C44.1206 44.8933 44.3677 44.7543 44.5638 44.5568C44.7599 44.3594 44.8973 44.1112 44.9605 43.8402C45.0238 43.5691 45.0104 43.2857 44.922 43.0218L42.144 34.7038C44.16 31.1827 45 26.5809 45 22.4985C44.9976 16.5297 42.6258 10.8062 38.4064 6.58699C34.1869 2.36779 28.4653 -0.00159179 22.5 8.02334e-07Z" fill="#9C9C9C"/>
</svg>
