<svg width="45" height="45" viewBox="0 0 45 45" fill="none" xmlns="http://www.w3.org/2000/svg">
<path fill-rule="evenodd" clip-rule="evenodd" d="M12.5 10C12.5 7.34784 13.5536 4.8043 15.4289 2.92893C17.3043 1.05357 19.8478 0 22.5 0C25.1522 0 27.6957 1.05357 29.5711 2.92893C31.4464 4.8043 32.5 7.34784 32.5 10C32.5 12.6522 31.4464 15.1957 29.5711 17.0711C27.6957 18.9464 25.1522 20 22.5 20C19.8478 20 17.3043 18.9464 15.4289 17.0711C13.5536 15.1957 12.5 12.6522 12.5 10ZM12.5 25C9.18479 25 6.00537 26.317 3.66117 28.6612C1.31696 31.0054 0 34.1848 0 37.5C0 39.4891 0.790177 41.3968 2.1967 42.8033C3.60322 44.2098 5.51088 45 7.5 45H37.5C39.4891 45 41.3968 44.2098 42.8033 42.8033C44.2098 41.3968 45 39.4891 45 37.5C45 34.1848 43.683 31.0054 41.3388 28.6612C38.9946 26.317 35.8152 25 32.5 25H12.5Z" fill="#9C9C9C"/>
</svg>
