<svg width="45" height="45" viewBox="0 0 45 45" fill="none" xmlns="http://www.w3.org/2000/svg">
<path d="M44.4539 28.1855L41.568 25.288C41.9367 23.1762 41.8897 21.0177 41.4295 18.9222L44.2461 16.0247C44.4648 15.793 44.6109 15.5079 44.668 15.2014C44.7252 14.895 44.691 14.5795 44.5694 14.2905C43.4014 11.5456 41.6754 9.04672 39.4902 6.93693C39.2766 6.73392 39.0102 6.58838 38.7182 6.51511C38.4262 6.44185 38.119 6.44348 37.8279 6.51986L33.5799 7.55156C32.2719 6.65737 30.8528 5.9201 29.3549 5.35645L28.316 1.58088C28.2388 1.27465 28.0685 0.996827 27.8262 0.782109C27.5839 0.567391 27.2805 0.425295 26.9538 0.373571C25.5152 0.116892 24.054 -0.00806828 22.5903 0.000403464C20.7588 0.00770874 18.9357 0.236369 17.1649 0.680885C16.8693 0.751519 16.5995 0.897009 16.384 1.10187C16.1685 1.30674 16.0155 1.56331 15.9412 1.84429L14.833 5.72962C13.5942 6.25266 12.4177 6.90024 11.3238 7.66131L7.12192 6.67351C6.8269 6.60019 6.51649 6.60433 6.22375 6.68551C5.93102 6.76669 5.66694 6.92186 5.45964 7.13449C3.16425 9.40173 1.40842 12.1117 0.311193 15.0808C0.204787 15.3677 0.182958 15.6769 0.248068 15.9748C0.313178 16.2728 0.462747 16.5481 0.680588 16.771L3.58958 19.6466C3.44228 20.5694 3.36513 21.501 3.3587 22.4344C3.3587 23.0929 3.3587 23.7514 3.47414 24.4099L0.449716 27.6148C0.246183 27.8279 0.104966 28.088 0.04015 28.3691C-0.0246659 28.6503 -0.0108152 28.9427 0.0803207 29.2172C1.02907 32.1196 2.60141 34.8031 4.69776 37.0976C4.9086 37.3334 5.18504 37.5078 5.49538 37.601C5.80573 37.6942 6.13741 37.7023 6.45239 37.6245L10.4234 36.6586C11.8129 37.7718 13.3691 38.6818 15.0408 39.3586L16.1952 43.2878C16.2841 43.5727 16.4505 43.8302 16.6774 44.0345C16.9044 44.2387 17.184 44.3825 17.4881 44.4512C19.1527 44.809 20.8565 44.9934 22.5673 45C23.9294 44.9868 25.2869 44.8617 26.6306 44.6268C26.9493 44.5733 27.2459 44.436 27.4867 44.2303C27.7274 44.0247 27.9027 43.759 27.9928 43.4634L29.0779 39.7537C31.0712 39.0757 32.9291 38.0811 34.5726 36.8123L38.636 37.6903C38.9407 37.7576 39.259 37.7441 39.5562 37.6512C39.8534 37.5583 40.1181 37.3896 40.3213 37.1635C42.3451 35.0268 43.9133 32.5369 44.9388 29.8318C45.0217 29.5414 45.0204 29.235 44.935 28.9451C44.8497 28.6553 44.6834 28.3928 44.4539 28.1855ZM22.775 30.9733C21.6083 30.9941 20.4489 30.7939 19.3643 30.3844C18.2797 29.975 17.2916 29.3644 16.4577 28.5884C15.6237 27.8123 14.9605 26.8862 14.5066 25.864C14.0528 24.8418 13.8174 23.744 13.8142 22.6345C13.811 21.525 14.04 20.4259 14.4879 19.4014C14.9358 18.3768 15.5936 17.4473 16.4231 16.6668C17.2526 15.8864 18.2371 15.2707 19.3193 14.8555C20.4015 14.4404 21.5597 14.2342 22.7266 14.2488C25.0595 14.243 27.2992 15.1185 28.9532 16.6829C30.6071 18.2472 31.5397 20.3721 31.5459 22.5902C31.552 24.8083 30.6311 26.9379 28.9858 28.5104C27.3406 30.083 25.1056 30.9697 22.7727 30.9755" fill="#9C9C9C"/>
</svg>
